<svg xmlns="http://www.w3.org/2000/svg" xmlns:xlink="http://www.w3.org/1999/xlink" width="2000" zoomAndPan="magnify" viewBox="0 0 1500 1499.999933" height="2000" preserveAspectRatio="xMidYMid meet" version="1.0"><defs><g/><clipPath id="88654b2dc9"><path d="M 297.992188 639.332031 L 518.492188 639.332031 L 518.492188 876.332031 L 297.992188 876.332031 Z M 297.992188 639.332031 " clip-rule="nonzero"/></clipPath></defs><g clip-path="url(#88654b2dc9)"><path fill="#111111" d="M 410.855469 792.394531 L 414.464844 864.785156 C 414.472656 864.976562 414.503906 865.167969 414.554688 865.355469 L 416.414062 872.300781 C 416.941406 874.261719 415.460938 876.1875 413.429688 876.1875 L 402.824219 876.1875 C 400.789062 876.1875 399.308594 874.261719 399.835938 872.300781 L 401.699219 865.355469 C 401.746094 865.167969 401.777344 864.976562 401.789062 864.785156 L 405.398438 792.394531 L 405.40625 792.21875 L 410.84375 792.21875 Z M 405.492188 640.839844 C 406.691406 638.828125 409.609375 638.828125 410.808594 640.84375 L 430.601562 674.121094 C 431.3125 675.3125 432.804688 675.78125 434.070312 675.210938 L 448.984375 668.484375 C 451.300781 667.4375 453.820312 669.476562 453.28125 671.957031 L 440.140625 732.148438 C 439.847656 733.484375 440.597656 734.832031 441.890625 735.296875 L 442.78125 735.613281 C 443.800781 735.976562 444.941406 735.703125 445.683594 734.917969 L 472.589844 706.460938 C 474.023438 704.945312 476.515625 705.25 477.535156 707.070312 L 482.96875 716.746094 C 483.53125 717.746094 484.660156 718.289062 485.792969 718.101562 L 512.410156 713.71875 C 514.632812 713.351562 516.492188 715.410156 515.894531 717.582031 L 507.378906 748.621094 C 507.027344 749.914062 507.664062 751.269531 508.882812 751.824219 L 516.445312 755.257812 C 518.511719 756.195312 518.894531 758.964844 517.160156 760.429688 L 467.117188 802.667969 C 466.234375 803.414062 465.917969 804.628906 466.320312 805.707031 L 471.765625 820.253906 C 472.574219 822.414062 470.820312 824.664062 468.527344 824.40625 L 423.484375 819.371094 C 422.0625 819.214844 420.9375 818.101562 420.757812 816.6875 L 417.652344 791.925781 C 417.507812 790.769531 418.027344 789.632812 418.949219 788.933594 C 420.066406 788.085938 421.671875 786.78125 423.191406 785.25 C 424.714844 783.71875 426.140625 781.972656 426.90625 780.242188 C 427.9375 777.90625 428.539062 775.890625 428.71875 773.851562 C 428.898438 771.8125 428.65625 769.734375 427.988281 767.277344 C 427.335938 764.875 426.539062 762.996094 425.402344 761.351562 C 424.269531 759.710938 422.792969 758.296875 420.78125 756.832031 C 418.703125 755.324219 416.832031 754.429688 414.84375 753.90625 C 412.851562 753.382812 410.730469 753.234375 408.152344 753.234375 C 405.570312 753.234375 403.453125 753.382812 401.460938 753.90625 C 399.46875 754.429688 397.601562 755.324219 395.523438 756.832031 C 393.511719 758.296875 392.035156 759.710938 390.902344 761.351562 C 389.765625 762.996094 388.964844 764.875 388.316406 767.277344 C 387.648438 769.734375 387.402344 771.8125 387.582031 773.855469 C 387.757812 775.894531 388.359375 777.910156 389.398438 780.238281 C 390.164062 781.960938 391.589844 783.707031 393.113281 785.238281 C 394.636719 786.769531 396.246094 788.078125 397.359375 788.933594 C 398.277344 789.632812 398.792969 790.765625 398.648438 791.921875 L 395.496094 816.691406 C 395.316406 818.105469 394.191406 819.214844 392.769531 819.371094 L 347.722656 824.40625 C 345.433594 824.664062 343.675781 822.414062 344.484375 820.253906 L 349.929688 805.707031 C 350.332031 804.628906 350.015625 803.414062 349.132812 802.667969 L 299.089844 760.429688 C 297.355469 758.964844 297.738281 756.195312 299.804688 755.257812 L 307.367188 751.824219 C 308.585938 751.269531 309.222656 749.914062 308.871094 748.621094 L 300.355469 717.582031 C 299.757812 715.410156 301.617188 713.351562 303.839844 713.71875 L 330.457031 718.101562 C 331.589844 718.289062 332.71875 717.746094 333.28125 716.746094 L 338.714844 707.070312 C 339.734375 705.25 342.230469 704.945312 343.660156 706.460938 L 370.566406 734.917969 C 371.308594 735.703125 372.449219 735.976562 373.46875 735.613281 L 374.363281 735.296875 C 375.652344 734.832031 376.402344 733.484375 376.109375 732.148438 L 362.96875 671.957031 C 362.429688 669.476562 364.949219 667.4375 367.265625 668.484375 L 382.179688 675.210938 C 383.445312 675.785156 384.9375 675.3125 385.648438 674.121094 Z M 405.492188 640.839844 " fill-opacity="1" fill-rule="nonzero"/></g><g fill="#171717" fill-opacity="1"><g transform="translate(540.64187, 766.048618)"><g><path d="M 75.421875 -25.046875 L 77.84375 -24.109375 L 69.21875 0 L 4.4375 0 L 4.4375 -2.6875 C 7.945312 -3.59375 10.441406 -4.828125 11.921875 -6.390625 C 13.398438 -7.960938 14.296875 -10.050781 14.609375 -12.65625 C 14.921875 -15.257812 15.078125 -18.535156 15.078125 -22.484375 L 15.078125 -71.375 C 15.078125 -75.414062 14.921875 -78.710938 14.609375 -81.265625 C 14.296875 -83.828125 13.398438 -85.894531 11.921875 -87.46875 C 10.441406 -89.039062 7.945312 -90.273438 4.4375 -91.171875 L 4.4375 -93.859375 L 67.734375 -93.859375 L 69.359375 -70.4375 L 66.796875 -69.890625 C 65.003906 -75.191406 62.914062 -79.300781 60.53125 -82.21875 C 58.15625 -85.132812 55.257812 -87.195312 51.84375 -88.40625 C 48.4375 -89.625 44.175781 -90.234375 39.0625 -90.234375 C 37.800781 -90.234375 36.675781 -90.207031 35.6875 -90.15625 C 34.695312 -90.113281 33.570312 -90.09375 32.3125 -90.09375 C 31.0625 -90.09375 29.359375 -90.046875 27.203125 -89.953125 L 27.203125 -50.375 L 37.03125 -50.640625 C 41.789062 -50.816406 45.539062 -51.398438 48.28125 -52.390625 C 51.019531 -53.378906 53.082031 -54.75 54.46875 -56.5 C 55.863281 -58.25 56.832031 -60.332031 57.375 -62.75 L 59.65625 -62.75 L 59.25 -32.71875 L 56.828125 -32.71875 C 56.378906 -35.320312 55.546875 -37.632812 54.328125 -39.65625 C 53.117188 -41.675781 51.164062 -43.316406 48.46875 -44.578125 C 45.78125 -45.835938 41.96875 -46.507812 37.03125 -46.59375 L 27.203125 -46.859375 L 27.203125 -4.3125 C 29.453125 -4.132812 31.898438 -4 34.546875 -3.90625 C 37.191406 -3.8125 39.367188 -3.765625 41.078125 -3.765625 C 47.722656 -3.765625 53.875 -5.269531 59.53125 -8.28125 C 65.1875 -11.289062 70.484375 -16.878906 75.421875 -25.046875 Z M 75.421875 -25.046875 "/></g></g></g><g fill="#171717" fill-opacity="1"><g transform="translate(621.175676, 766.048618)"><g><path d="M 65.046875 -44.578125 L 64.90625 -17.90625 C 64.90625 -14.582031 65.0625 -11.976562 65.375 -10.09375 C 65.695312 -8.207031 66.484375 -6.726562 67.734375 -5.65625 C 68.992188 -4.582031 71.101562 -3.59375 74.0625 -2.6875 L 74.0625 0 L 44.578125 0 L 44.578125 -2.6875 C 47.359375 -3.59375 49.421875 -4.492188 50.765625 -5.390625 C 52.117188 -6.285156 53.019531 -7.675781 53.46875 -9.5625 C 53.914062 -11.445312 54.140625 -14.226562 54.140625 -17.90625 L 54.140625 -39.1875 C 54.140625 -43.40625 53.890625 -47.019531 53.390625 -50.03125 C 52.898438 -53.039062 51.78125 -55.328125 50.03125 -56.890625 C 48.28125 -58.460938 45.519531 -59.25 41.75 -59.25 C 36.71875 -59.25 30.429688 -56.875 22.890625 -52.125 L 22.890625 -17.90625 C 22.890625 -14.582031 23.046875 -11.976562 23.359375 -10.09375 C 23.679688 -8.207031 24.46875 -6.726562 25.71875 -5.65625 C 26.976562 -4.582031 29.085938 -3.59375 32.046875 -2.6875 L 32.046875 0 L 2.5625 0 L 2.5625 -2.6875 C 5.34375 -3.59375 7.40625 -4.492188 8.75 -5.390625 C 10.101562 -6.285156 11.003906 -7.675781 11.453125 -9.5625 C 11.898438 -11.445312 12.125 -14.226562 12.125 -17.90625 L 12.125 -49.15625 C 12.125 -53.019531 11.222656 -55.78125 9.421875 -57.4375 C 7.628906 -59.09375 5.34375 -60.054688 2.5625 -60.328125 L 2.5625 -63.03125 C 5.882812 -63.207031 9.25 -63.585938 12.65625 -64.171875 C 16.070312 -64.753906 19.035156 -65.539062 21.546875 -66.53125 L 23.703125 -64.640625 L 22.484375 -55.75 C 27.515625 -59.4375 31.957031 -62.128906 35.8125 -63.828125 C 39.675781 -65.535156 43.539062 -66.390625 47.40625 -66.390625 C 59.164062 -66.390625 65.046875 -59.117188 65.046875 -44.578125 Z M 65.046875 -44.578125 "/></g></g></g><g fill="#171717" fill-opacity="1"><g transform="translate(697.265307, 766.048618)"><g><path d="M 42.6875 -8.484375 L 44.171875 -5.796875 C 35.734375 -0.671875 28.957031 1.890625 23.84375 1.890625 C 18.90625 1.890625 15.46875 0.207031 13.53125 -3.15625 C 11.601562 -6.53125 10.640625 -11.628906 10.640625 -18.453125 L 10.640625 -58.984375 L 2.6875 -58.984375 L 2.6875 -61.6875 C 6.90625 -63.476562 10.40625 -65.695312 13.1875 -68.34375 C 15.976562 -70.988281 18.226562 -73.972656 19.9375 -77.296875 L 22.890625 -77.296875 L 21.6875 -62.890625 L 40 -63.96875 L 40 -58.984375 L 21.40625 -58.984375 L 21.40625 -30.03125 C 21.40625 -23.75 21.628906 -18.765625 22.078125 -15.078125 C 22.535156 -11.398438 23.476562 -8.796875 24.90625 -7.265625 C 26.34375 -5.742188 28.457031 -4.984375 31.25 -4.984375 C 32.769531 -4.984375 34.472656 -5.25 36.359375 -5.78125 C 38.242188 -6.320312 40.351562 -7.222656 42.6875 -8.484375 Z M 42.6875 -8.484375 "/></g></g></g><g fill="#171717" fill-opacity="1"><g transform="translate(742.78443, 766.048618)"><g><path d="M 43.640625 -66.125 C 45.609375 -66.125 47.421875 -65.5625 49.078125 -64.4375 C 50.742188 -63.3125 51.578125 -61.582031 51.578125 -59.25 C 51.578125 -57.550781 51.101562 -56.050781 50.15625 -54.75 C 49.21875 -53.445312 47.988281 -52.796875 46.46875 -52.796875 C 45.75 -52.796875 44.914062 -53.128906 43.96875 -53.796875 C 43.03125 -54.472656 41.929688 -55.144531 40.671875 -55.8125 C 39.410156 -56.488281 37.835938 -56.828125 35.953125 -56.828125 C 34.785156 -56.828125 32.96875 -56.421875 30.5 -55.609375 C 28.03125 -54.804688 25.492188 -53.238281 22.890625 -50.90625 L 22.890625 -17.90625 C 22.890625 -14.582031 23.046875 -11.976562 23.359375 -10.09375 C 23.679688 -8.207031 24.46875 -6.726562 25.71875 -5.65625 C 26.976562 -4.582031 29.085938 -3.59375 32.046875 -2.6875 L 32.046875 0 L 2.5625 0 L 2.5625 -2.6875 C 5.34375 -3.59375 7.40625 -4.492188 8.75 -5.390625 C 10.101562 -6.285156 11.003906 -7.675781 11.453125 -9.5625 C 11.898438 -11.445312 12.125 -14.226562 12.125 -17.90625 L 12.125 -49.15625 C 12.125 -53.019531 11.222656 -55.78125 9.421875 -57.4375 C 7.628906 -59.09375 5.34375 -60.054688 2.5625 -60.328125 L 2.5625 -63.03125 C 5.882812 -63.207031 9.25 -63.585938 12.65625 -64.171875 C 16.070312 -64.753906 19.035156 -65.539062 21.546875 -66.53125 L 23.703125 -64.640625 L 22.21875 -54.40625 C 25.363281 -57.28125 28.863281 -59.953125 32.71875 -62.421875 C 36.582031 -64.890625 40.222656 -66.125 43.640625 -66.125 Z M 43.640625 -66.125 "/></g></g></g><g fill="#171717" fill-opacity="1"><g transform="translate(798.134576, 766.048618)"><g><path d="M 41.078125 -61.953125 L 41.078125 -64.640625 L 65.3125 -64.640625 L 65.3125 -61.953125 C 63.875 -61.953125 62.59375 -61.367188 61.46875 -60.203125 C 60.351562 -59.035156 59.117188 -56.96875 57.765625 -54 C 56.421875 -51.039062 54.582031 -46.773438 52.25 -41.203125 L 34.078125 1.609375 C 31.554688 7.804688 29.460938 12.8125 27.796875 16.625 C 26.140625 20.445312 24.679688 23.429688 23.421875 25.578125 C 22.171875 27.734375 20.914062 29.53125 19.65625 30.96875 C 18.488281 32.320312 17.1875 33.3125 15.75 33.9375 C 14.320312 34.5625 13.113281 34.875 12.125 34.875 C 9.695312 34.875 7.8125 33.84375 6.46875 31.78125 C 5.570312 30.4375 5.054688 29.085938 4.921875 27.734375 C 4.785156 26.390625 5.300781 25.359375 6.46875 24.640625 C 7 24.191406 8.070312 23.742188 9.6875 23.296875 C 11.3125 22.847656 13.175781 22.082031 15.28125 21 C 17.394531 19.925781 19.550781 18.332031 21.75 16.21875 C 23.945312 14.113281 25.898438 11.175781 27.609375 7.40625 L 30.4375 1.484375 L 10.375 -47.9375 C 8.757812 -52.070312 7.429688 -55.125 6.390625 -57.09375 C 5.359375 -59.070312 4.4375 -60.375 3.625 -61 C 2.820312 -61.632812 1.789062 -61.953125 0.53125 -61.953125 L 0.53125 -64.640625 L 27.0625 -64.640625 L 27.0625 -61.953125 C 23.207031 -61.953125 20.785156 -61.140625 19.796875 -59.515625 C 18.804688 -57.898438 19.253906 -54.625 21.140625 -49.6875 L 35.828125 -11.3125 L 46.46875 -38.921875 C 49.425781 -46.554688 50.410156 -52.300781 49.421875 -56.15625 C 48.429688 -60.019531 45.648438 -61.953125 41.078125 -61.953125 Z M 41.078125 -61.953125 "/></g></g></g><g fill="#171717" fill-opacity="1"><g transform="translate(862.507747, 766.048618)"><g><path d="M 34.078125 0.8125 C 32.816406 0.8125 31.21875 0.648438 29.28125 0.328125 C 27.351562 0.015625 25.222656 -0.539062 22.890625 -1.34375 L 22.890625 16.03125 C 22.890625 19.164062 23.066406 21.65625 23.421875 23.5 C 23.785156 25.34375 24.796875 26.820312 26.453125 27.9375 C 28.117188 29.0625 30.882812 30.164062 34.75 31.25 L 34.75 33.9375 L 2.5625 33.9375 L 2.5625 31.25 C 5.34375 30.164062 7.40625 29.148438 8.75 28.203125 C 10.101562 27.265625 11.003906 25.875 11.453125 24.03125 C 11.898438 22.195312 12.125 19.53125 12.125 16.03125 L 12.125 -49.15625 C 12.125 -53.019531 11.222656 -55.78125 9.421875 -57.4375 C 7.628906 -59.09375 5.34375 -60.054688 2.5625 -60.328125 L 2.5625 -63.03125 C 5.882812 -63.207031 9.25 -63.585938 12.65625 -64.171875 C 16.070312 -64.753906 19.035156 -65.539062 21.546875 -66.53125 L 23.703125 -64.640625 L 22.625 -57.78125 C 26.570312 -60.289062 30.25 -62.285156 33.65625 -63.765625 C 37.070312 -65.242188 40.578125 -65.984375 44.171875 -65.984375 C 49.203125 -65.984375 53.671875 -64.679688 57.578125 -62.078125 C 61.484375 -59.472656 64.554688 -55.835938 66.796875 -51.171875 C 69.046875 -46.503906 70.171875 -40.984375 70.171875 -34.609375 C 70.171875 -29.316406 69.160156 -24.515625 67.140625 -20.203125 C 65.117188 -15.890625 62.398438 -12.160156 58.984375 -9.015625 C 55.578125 -5.878906 51.71875 -3.457031 47.40625 -1.75 C 43.09375 -0.0390625 38.648438 0.8125 34.078125 0.8125 Z M 59.390625 -29.09375 C 59.390625 -38.789062 57.570312 -46.265625 53.9375 -51.515625 C 50.300781 -56.765625 45.472656 -59.390625 39.453125 -59.390625 C 36.941406 -59.390625 34.335938 -58.847656 31.640625 -57.765625 C 28.953125 -56.691406 26.035156 -55.257812 22.890625 -53.46875 L 22.890625 -9.15625 C 25.222656 -7.445312 27.734375 -6.164062 30.421875 -5.3125 C 33.117188 -4.46875 35.953125 -4.046875 38.921875 -4.046875 C 45.472656 -4.046875 50.519531 -6.285156 54.0625 -10.765625 C 57.613281 -15.253906 59.390625 -21.363281 59.390625 -29.09375 Z M 59.390625 -29.09375 "/></g></g></g><g fill="#171717" fill-opacity="1"><g transform="translate(936.981313, 766.048618)"><g><path d="M 36.625 1.75 C 30.25 1.75 24.640625 0.289062 19.796875 -2.625 C 14.953125 -5.539062 11.179688 -9.535156 8.484375 -14.609375 C 5.785156 -19.679688 4.4375 -25.359375 4.4375 -31.640625 C 4.4375 -38.203125 5.984375 -44.109375 9.078125 -49.359375 C 12.179688 -54.609375 16.269531 -58.757812 21.34375 -61.8125 C 26.414062 -64.863281 31.914062 -66.390625 37.84375 -66.390625 C 44.21875 -66.390625 49.804688 -64.929688 54.609375 -62.015625 C 59.410156 -59.097656 63.15625 -55.191406 65.84375 -50.296875 C 68.539062 -45.398438 69.890625 -39.992188 69.890625 -34.078125 C 69.890625 -27.335938 68.40625 -21.273438 65.4375 -15.890625 C 62.476562 -10.503906 58.507812 -6.21875 53.53125 -3.03125 C 48.550781 0.15625 42.914062 1.75 36.625 1.75 Z M 39.59375 -2.296875 C 44.800781 -2.296875 49.195312 -4.222656 52.78125 -8.078125 C 56.375 -11.941406 58.171875 -17.554688 58.171875 -24.921875 C 58.171875 -32.367188 57.207031 -38.921875 55.28125 -44.578125 C 53.351562 -50.234375 50.703125 -54.628906 47.328125 -57.765625 C 43.960938 -60.910156 40.128906 -62.484375 35.828125 -62.484375 C 30.253906 -62.484375 25.648438 -60.484375 22.015625 -56.484375 C 18.378906 -52.492188 16.5625 -46.6875 16.5625 -39.0625 C 16.5625 -31.695312 17.523438 -25.253906 19.453125 -19.734375 C 21.390625 -14.210938 24.082031 -9.925781 27.53125 -6.875 C 30.988281 -3.820312 35.007812 -2.296875 39.59375 -2.296875 Z M 39.59375 -2.296875 "/></g></g></g><g fill="#171717" fill-opacity="1"><g transform="translate(1011.18553, 766.048618)"><g><path d="M 17.5 -77.171875 C 15.082031 -77.171875 13.15625 -77.953125 11.71875 -79.515625 C 10.28125 -81.085938 9.609375 -83.039062 9.703125 -85.375 C 9.878906 -87.71875 10.773438 -89.671875 12.390625 -91.234375 C 14.003906 -92.804688 15.976562 -93.59375 18.3125 -93.59375 C 20.738281 -93.59375 22.691406 -92.804688 24.171875 -91.234375 C 25.648438 -89.671875 26.300781 -87.71875 26.125 -85.375 C 26.03125 -83.039062 25.15625 -81.085938 23.5 -79.515625 C 21.84375 -77.953125 19.84375 -77.171875 17.5 -77.171875 Z M 21.40625 -66.53125 L 23.03125 -64.640625 L 22.890625 -17.90625 C 22.890625 -14.582031 23.046875 -11.976562 23.359375 -10.09375 C 23.679688 -8.207031 24.46875 -6.726562 25.71875 -5.65625 C 26.976562 -4.582031 29.085938 -3.59375 32.046875 -2.6875 L 32.046875 0 L 2.5625 0 L 2.5625 -2.6875 C 5.34375 -3.59375 7.40625 -4.492188 8.75 -5.390625 C 10.101562 -6.285156 11.003906 -7.675781 11.453125 -9.5625 C 11.898438 -11.445312 12.125 -14.226562 12.125 -17.90625 L 12.25 -49.296875 C 12.25 -53.242188 11.550781 -55.890625 10.15625 -57.234375 C 8.769531 -58.578125 6.28125 -59.609375 2.6875 -60.328125 L 2.6875 -63.03125 C 6.007812 -63.207031 9.375 -63.585938 12.78125 -64.171875 C 16.195312 -64.753906 19.070312 -65.539062 21.40625 -66.53125 Z M 21.40625 -66.53125 "/></g></g></g><g fill="#171717" fill-opacity="1"><g transform="translate(1045.930888, 766.048618)"><g><path d="M 65.046875 -44.578125 L 64.90625 -17.90625 C 64.90625 -14.582031 65.0625 -11.976562 65.375 -10.09375 C 65.695312 -8.207031 66.484375 -6.726562 67.734375 -5.65625 C 68.992188 -4.582031 71.101562 -3.59375 74.0625 -2.6875 L 74.0625 0 L 44.578125 0 L 44.578125 -2.6875 C 47.359375 -3.59375 49.421875 -4.492188 50.765625 -5.390625 C 52.117188 -6.285156 53.019531 -7.675781 53.46875 -9.5625 C 53.914062 -11.445312 54.140625 -14.226562 54.140625 -17.90625 L 54.140625 -39.1875 C 54.140625 -43.40625 53.890625 -47.019531 53.390625 -50.03125 C 52.898438 -53.039062 51.78125 -55.328125 50.03125 -56.890625 C 48.28125 -58.460938 45.519531 -59.25 41.75 -59.25 C 36.71875 -59.25 30.429688 -56.875 22.890625 -52.125 L 22.890625 -17.90625 C 22.890625 -14.582031 23.046875 -11.976562 23.359375 -10.09375 C 23.679688 -8.207031 24.46875 -6.726562 25.71875 -5.65625 C 26.976562 -4.582031 29.085938 -3.59375 32.046875 -2.6875 L 32.046875 0 L 2.5625 0 L 2.5625 -2.6875 C 5.34375 -3.59375 7.40625 -4.492188 8.75 -5.390625 C 10.101562 -6.285156 11.003906 -7.675781 11.453125 -9.5625 C 11.898438 -11.445312 12.125 -14.226562 12.125 -17.90625 L 12.125 -49.15625 C 12.125 -53.019531 11.222656 -55.78125 9.421875 -57.4375 C 7.628906 -59.09375 5.34375 -60.054688 2.5625 -60.328125 L 2.5625 -63.03125 C 5.882812 -63.207031 9.25 -63.585938 12.65625 -64.171875 C 16.070312 -64.753906 19.035156 -65.539062 21.546875 -66.53125 L 23.703125 -64.640625 L 22.484375 -55.75 C 27.515625 -59.4375 31.957031 -62.128906 35.8125 -63.828125 C 39.675781 -65.535156 43.539062 -66.390625 47.40625 -66.390625 C 59.164062 -66.390625 65.046875 -59.117188 65.046875 -44.578125 Z M 65.046875 -44.578125 "/></g></g></g><g fill="#171717" fill-opacity="1"><g transform="translate(1122.020542, 766.048618)"><g><path d="M 42.6875 -8.484375 L 44.171875 -5.796875 C 35.734375 -0.671875 28.957031 1.890625 23.84375 1.890625 C 18.90625 1.890625 15.46875 0.207031 13.53125 -3.15625 C 11.601562 -6.53125 10.640625 -11.628906 10.640625 -18.453125 L 10.640625 -58.984375 L 2.6875 -58.984375 L 2.6875 -61.6875 C 6.90625 -63.476562 10.40625 -65.695312 13.1875 -68.34375 C 15.976562 -70.988281 18.226562 -73.972656 19.9375 -77.296875 L 22.890625 -77.296875 L 21.6875 -62.890625 L 40 -63.96875 L 40 -58.984375 L 21.40625 -58.984375 L 21.40625 -30.03125 C 21.40625 -23.75 21.628906 -18.765625 22.078125 -15.078125 C 22.535156 -11.398438 23.476562 -8.796875 24.90625 -7.265625 C 26.34375 -5.742188 28.457031 -4.984375 31.25 -4.984375 C 32.769531 -4.984375 34.472656 -5.25 36.359375 -5.78125 C 38.242188 -6.320312 40.351562 -7.222656 42.6875 -8.484375 Z M 42.6875 -8.484375 "/></g></g></g><g fill="#b22325" fill-opacity="1"><g transform="translate(688.66041, 848.173563)"><g><path d="M 27.53125 -11.546875 L 35.859375 -11.546875 C 35.097656 -9.210938 33.898438 -7.132812 32.265625 -5.3125 C 30.640625 -3.5 28.707031 -2.078125 26.46875 -1.046875 C 24.238281 -0.015625 21.828125 0.5 19.234375 0.5 C 16.835938 0.5 14.582031 0.0507812 12.46875 -0.84375 C 10.351562 -1.75 8.488281 -3.007812 6.875 -4.625 C 5.257812 -6.238281 4 -8.101562 3.09375 -10.21875 C 2.195312 -12.332031 1.75 -14.585938 1.75 -16.984375 C 1.75 -19.378906 2.195312 -21.632812 3.09375 -23.75 C 4 -25.863281 5.257812 -27.726562 6.875 -29.34375 C 8.488281 -30.957031 10.351562 -32.210938 12.46875 -33.109375 C 14.582031 -34.015625 16.835938 -34.46875 19.234375 -34.46875 C 21.828125 -34.46875 24.226562 -33.953125 26.4375 -32.921875 C 28.65625 -31.890625 30.582031 -30.484375 32.21875 -28.703125 C 33.851562 -26.921875 35.050781 -24.863281 35.8125 -22.53125 L 27.46875 -22.53125 C 26.769531 -24.0625 25.65625 -25.265625 24.125 -26.140625 C 22.59375 -27.023438 20.960938 -27.46875 19.234375 -27.46875 C 17.398438 -27.46875 15.734375 -26.992188 14.234375 -26.046875 C 12.734375 -25.097656 11.539062 -23.832031 10.65625 -22.25 C 9.78125 -20.664062 9.34375 -18.910156 9.34375 -16.984375 C 9.34375 -15.054688 9.78125 -13.300781 10.65625 -11.71875 C 11.539062 -10.132812 12.734375 -8.867188 14.234375 -7.921875 C 15.734375 -6.972656 17.398438 -6.5 19.234375 -6.5 C 20.992188 -6.5 22.640625 -6.960938 24.171875 -7.890625 C 25.703125 -8.828125 26.820312 -10.046875 27.53125 -11.546875 Z M 27.53125 -11.546875 "/></g></g></g><g fill="#b22325" fill-opacity="1"><g transform="translate(754.794758, 848.173563)"><g><path d="M 21.484375 -12.984375 L 17.1875 -25.078125 L 12.890625 -12.984375 Z M 34.171875 0 L 26.125 0 L 23.671875 -6.84375 L 10.734375 -6.84375 L 8.296875 0 L 0.25 0 L 14.03125 -33.96875 L 20.375 -33.96875 Z M 34.171875 0 "/></g></g></g><g fill="#b22325" fill-opacity="1"><g transform="translate(818.232066, 848.173563)"><g><path d="M 29.671875 0 L 22.171875 0 L 10.484375 -21.1875 L 10.484375 0 L 3 0 L 3 -33.96875 L 10.484375 -33.96875 L 22.171875 -12.78125 L 22.171875 -33.96875 L 29.671875 -33.96875 Z M 29.671875 0 "/></g></g></g><g fill="#b22325" fill-opacity="1"><g transform="translate(879.921288, 848.173563)"><g><path d="M 21.484375 -12.984375 L 17.1875 -25.078125 L 12.890625 -12.984375 Z M 34.171875 0 L 26.125 0 L 23.671875 -6.84375 L 10.734375 -6.84375 L 8.296875 0 L 0.25 0 L 14.03125 -33.96875 L 20.375 -33.96875 Z M 34.171875 0 "/></g></g></g><g fill="#b22325" fill-opacity="1"><g transform="translate(943.358585, 848.173563)"><g><path d="M 10.390625 -6.890625 L 12.640625 -6.890625 C 14.566406 -6.890625 16.253906 -7.335938 17.703125 -8.234375 C 19.148438 -9.140625 20.28125 -10.359375 21.09375 -11.890625 C 21.914062 -13.421875 22.328125 -15.117188 22.328125 -16.984375 C 22.328125 -18.878906 21.914062 -20.582031 21.09375 -22.09375 C 20.28125 -23.613281 19.148438 -24.816406 17.703125 -25.703125 C 16.253906 -26.585938 14.566406 -27.03125 12.640625 -27.03125 L 10.390625 -27.03125 Z M 3 -33.96875 L 13.09375 -33.96875 C 15.488281 -33.96875 17.707031 -33.535156 19.75 -32.671875 C 21.800781 -31.804688 23.59375 -30.609375 25.125 -29.078125 C 26.65625 -27.546875 27.84375 -25.742188 28.6875 -23.671875 C 29.539062 -21.609375 29.96875 -19.378906 29.96875 -16.984375 C 29.96875 -14.585938 29.539062 -12.351562 28.6875 -10.28125 C 27.84375 -8.21875 26.660156 -6.421875 25.140625 -4.890625 C 23.628906 -3.359375 21.84375 -2.160156 19.78125 -1.296875 C 17.71875 -0.429688 15.488281 0 13.09375 0 L 3 0 Z M 3 -33.96875 "/></g></g></g><g fill="#b22325" fill-opacity="1"><g transform="translate(1004.098875, 848.173563)"><g><path d="M 21.484375 -12.984375 L 17.1875 -25.078125 L 12.890625 -12.984375 Z M 34.171875 0 L 26.125 0 L 23.671875 -6.84375 L 10.734375 -6.84375 L 8.296875 0 L 0.25 0 L 14.03125 -33.96875 L 20.375 -33.96875 Z M 34.171875 0 "/></g></g></g></svg>