<svg width="606" height="652" viewBox="0 0 606 652" fill="none" xmlns="http://www.w3.org/2000/svg">
<path d="M310.178 421.084L320.098 620.233C320.124 620.763 320.206 621.289 320.344 621.802L325.463 640.909C326.909 646.307 322.842 651.609 317.253 651.609H288.105C282.516 651.609 278.448 646.307 279.895 640.909L285.014 621.802C285.151 621.289 285.233 620.763 285.26 620.233L295.18 421.084L295.203 420.609H310.154L310.178 421.084ZM295.44 4.15015C298.738 -1.38694 306.758 -1.38238 310.051 4.15796L364.455 95.7068C366.405 98.9884 370.51 100.282 373.989 98.7107L414.975 80.2009C421.342 77.3259 428.266 82.9328 426.777 89.7586L390.666 255.343C389.863 259.027 391.92 262.735 395.472 264.004L397.927 264.881C400.729 265.882 403.859 265.131 405.902 262.968L479.845 184.676C483.782 180.507 490.632 181.353 493.438 186.353L508.371 212.972C509.915 215.725 513.018 217.216 516.132 216.703L589.282 204.645C595.397 203.638 600.5 209.302 598.862 215.279L575.463 300.665C574.49 304.217 576.24 307.951 579.593 309.475L600.374 318.921C606.055 321.503 607.109 329.124 602.342 333.152L464.805 449.355C462.385 451.4 461.511 454.744 462.62 457.711L477.585 497.733C479.805 503.671 474.979 509.862 468.679 509.157L344.888 495.306C340.984 494.869 337.888 491.814 337.399 487.916L328.867 419.794C328.469 416.613 329.894 413.493 332.425 411.566C335.494 409.23 339.911 405.641 344.09 401.434C348.276 397.221 352.192 392.417 354.295 387.651C357.129 381.229 358.781 375.688 359.274 370.075C359.768 364.464 359.104 358.751 357.27 351.984C355.479 345.382 353.281 340.211 350.163 335.691C347.045 331.172 342.991 327.28 337.458 323.258C331.751 319.11 326.611 316.639 321.144 315.202C315.669 313.763 309.844 313.353 302.752 313.353C295.66 313.353 289.835 313.763 284.36 315.202C278.893 316.639 273.752 319.11 268.046 323.258C262.513 327.28 258.459 331.172 255.341 335.691C252.223 340.211 250.025 345.382 248.234 351.984C246.399 358.751 245.728 364.469 246.217 370.082C246.706 375.696 248.358 381.237 251.209 387.65C253.314 392.385 257.234 397.183 261.424 401.401C265.607 405.613 270.028 409.215 273.096 411.561C275.619 413.491 277.033 416.61 276.629 419.785L267.968 487.93C267.473 491.821 264.38 494.869 260.481 495.305L136.679 509.157C130.379 509.861 125.553 503.671 127.772 497.733L142.737 457.711C143.847 454.744 142.972 451.4 140.553 449.355L3.01563 333.152C-1.75143 329.124 -0.697704 321.503 4.9834 318.921L25.7647 309.475C29.1178 307.951 30.8679 304.217 29.8945 300.665L6.49512 215.279C4.85729 209.302 9.96056 203.638 16.0752 204.645L89.2256 216.703C92.3397 217.216 95.4421 215.725 96.9863 212.972L111.92 186.353C114.725 181.353 121.576 180.507 125.513 184.676L199.455 262.968C201.498 265.131 204.628 265.881 207.431 264.881L209.886 264.004C213.437 262.735 215.495 259.027 214.691 255.343L178.58 89.7586C177.092 82.9328 184.016 77.3259 190.383 80.2009L231.374 98.7127C234.851 100.283 238.952 98.9928 240.904 95.7156L295.44 4.15015Z" fill="#111111"/>
</svg>
